Coordinates
version=1
nRows=6
nColumns=36
inDegrees=yes

Units are S.I. units (second, meters, Newtons, ...)
If the header above contains a line with 'inDegrees', this indicates whether rotational values are in degrees (yes) or radians (no).

endheader
time	pelvis_tilt	pelvis_list	pelvis_rotation	pelvis_tx	pelvis_ty	pelvis_tz	hip_flexion_r	hip_adduction_r	hip_rotation_r	knee_angle_r	knee_angle_r_beta	ankle_angle_r	subtalar_angle_r	mtp_angle_r	hip_flexion_l	hip_adduction_l	hip_rotation_l	knee_angle_l	knee_angle_l_beta	ankle_angle_l	subtalar_angle_l	mtp_angle_l	lumbar_extension	lumbar_bending	lumbar_rotation	arm_flex_r	arm_add_r	arm_rot_r	elbow_flex_r	pro_sup_r	arm_flex_l	arm_add_l	arm_rot_l	elbow_flex_l	pro_sup_l
     29.66666670	     -1.86274175	      4.89907438	     -0.15793182	      0.65062323	      1.03089750	      0.84913944	      7.19436968	     -7.18938675	      3.98849363	     56.22217715	      0.98126210	    -19.20234446	    -16.12137628	     -7.49999987	     20.79442856	      4.74258377	     -2.88221164	     26.10872040	      0.45568313	      5.41732422	     -6.45641277	     -7.49999987	     -7.57493461	     -1.67276656	      5.93994646	      4.70618816	    -11.44499456	     -2.87195316	     24.66501396	     74.72134719	     -0.29644441	     -5.20437841	     -6.47023816	     16.22434870	     72.21651423
     29.68333330	     -2.09166045	      5.29263124	     -0.65153009	      0.64830760	      1.03166789	      0.84766659	      9.95579844	     -7.55435796	      4.84064442	     59.29702036	      1.03492824	    -18.22087301	    -15.61036673	     -7.49999987	     19.74203769	      5.00104190	     -3.66768279	     25.67798236	      0.44816534	      6.11708180	     -6.26995629	     -7.49999987	     -7.43418720	     -2.01234382	      6.14831897	      4.16135233	    -11.06571296	     -3.10594311	     23.46477194	     74.60866303	      0.61669891	     -5.30710555	     -6.23031776	     17.50334193	     72.24819093
     29.70000000	     -2.34283859	      5.54373968	     -0.96822903	      0.64746228	      1.03292084	      0.84594847	     12.51232453	     -7.69281610	      5.51665656	     61.49023915	      1.07320713	    -15.49497491	    -15.36329468	     -7.49999987	     18.58650263	      5.20235941	     -4.23478063	     25.04791934	      0.43716866	      6.63370355	     -6.02703985	     -7.49999987	     -7.32778187	     -2.16946687	      6.09521726	      3.74918169	    -10.72281245	     -3.35291888	     22.46436157	     74.08255997	      1.44536786	     -5.42314570	     -6.11416985	     19.04660563	     71.92935936
     29.71666670	     -2.56092807	      5.65695358	     -1.15706957	      0.64779775	      1.03464775	      0.84532919	     15.00242909	     -7.65754428	      6.04985391	     62.83392640	      1.09665890	    -11.63761494	    -15.54002608	     -7.49999987	     17.24288013	      5.32559012	     -4.77960608	     24.20783079	      0.42250635	      7.13041327	     -5.55017513	     -7.49999987	     -7.18817550	     -2.14367225	      5.79293519	      3.52663504	    -10.41069918	     -3.23326931	     21.36936620	     73.64304040	      2.31652219	     -5.66429735	     -5.89034863	     20.14153808	     71.66362561
     29.73333330	     -2.63437313	      5.60324001	     -1.28639758	      0.64746009	      1.03748949	      0.84603811	     17.41097166	     -7.44053955	      6.48684416	     63.38635494	      1.10630059	     -7.60386174	    -16.10776332	     -7.49999987	     15.65080914	      5.33191815	     -5.25268521	     23.20370124	      0.40498099	      7.61093139	     -4.98965748	     -7.49999987	     -7.26736635	     -1.97349110	      5.46058011	      3.39744961	    -10.15705669	     -2.96155373	     20.46452041	     73.46678572	      3.23231293	     -5.97457717	     -5.82208198	     21.24093331	     71.58182106
     29.75000000	     -2.81184288	      5.34541314	     -1.23454379	      0.64656126	      1.04071367	      0.84671214	     19.81983645	     -7.07425141	      6.63713781	     62.92214749	      1.09819865	     -4.09425553	    -16.66971345	     -7.49999987	     14.08087643	      5.18186003	     -5.48650312	     22.01091512	      0.38416294	      8.23076944	     -4.19165243	     -7.49999987	     -7.26310772	     -1.57444921	      4.90383932	      3.33820860	     -9.95618408	     -2.47424838	     19.51658723	     73.46897782	      3.99427322	     -6.34114923	     -5.83182894	     22.39724603	     71.66545528
